<?xml version="1.0" encoding="UTF-8" standalone="no"?>
<!-- Created with Inkscape (http://www.inkscape.org/) -->

<svg
   width="722.8302mm"
   height="723.01001mm"
   viewBox="0 0 722.8302 723.01001"
   version="1.1"
   id="svg1"
   xml:space="preserve"
   inkscape:version="1.4 (86a8ad7, 2024-10-11)"
   sodipodi:docname="logo.svg"
   xmlns:inkscape="http://www.inkscape.org/namespaces/inkscape"
   xmlns:sodipodi="http://sodipodi.sourceforge.net/DTD/sodipodi-0.dtd"
   xmlns="http://www.w3.org/2000/svg"
   xmlns:svg="http://www.w3.org/2000/svg"><sodipodi:namedview
     id="namedview1"
     pagecolor="#ffffff"
     bordercolor="#000000"
     borderopacity="0.25"
     inkscape:showpageshadow="2"
     inkscape:pageopacity="0.0"
     inkscape:pagecheckerboard="0"
     inkscape:deskcolor="#d1d1d1"
     inkscape:document-units="mm"
     inkscape:zoom="0.27338883"
     inkscape:cx="1060.7602"
     inkscape:cy="1547.2468"
     inkscape:window-width="1920"
     inkscape:window-height="1112"
     inkscape:window-x="-8"
     inkscape:window-y="-8"
     inkscape:window-maximized="1"
     inkscape:current-layer="layer1" /><defs
     id="defs1" /><g
     inkscape:label="Layer 1"
     inkscape:groupmode="layer"
     id="layer1"
     transform="translate(153.25822,70.158362)"><path
       style="fill:#0cfb44;stroke:none"
       d="m 184.86728,-69.721684 c -8.06615,1.611443 -16.81482,0.925999 -25.04722,2.035018 -19.63472,2.645101 -39.27753,6.726593 -58.20833,12.609352 -95.3025053,29.61529 -175.830355,98.459665 -219.33659,188.374334 -34.82584,71.97485 -44.26743,156.21605 -27.3743,234.24444 11.69716,54.02858 36.69707,105.69661 71.185985,148.87223 31.61272,39.57501 71.9798497,72.64638 116.9638,95.86434 34.38089,17.74535 71.440185,30.34165 109.713885,36.27759 41.24207,6.39638 84.2812,5.71442 125.23611,-2.47814 122.47357,-24.49941 225.33947,-113.76231 269.49961,-230.20546 13.25376,-34.948 19.56987,-71.53973 21.32265,-108.65581 0.74229,-15.71756 1.30478,-31.88467 -0.19327,-47.62475 C 564.41905,215.35118 552.69458,171.57487 533.32052,131.53313 488.55779,39.018711 403.9313,-30.244807 305.16451,-57.705491 c -17.99946,-5.004475 -36.56801,-8.951953 -55.18307,-10.705808 -8.75093,-0.824497 -17.55496,-0.570938 -26.3086,-1.170471 -8.31426,-0.569431 -16.7029,-0.321212 -25.04722,-0.321212 -4.3979,0 -9.44154,-0.681096 -13.75834,0.181298 m 8.46667,11.561095 c 9.35742,-1.10411 19.54941,-0.172513 28.92778,0.238186 8.09115,0.354328 16.16628,0.05125 24.24094,0.799994 16.78196,1.55615 33.55028,4.8488 49.84239,9.132474 59.94888,15.762303 115.33969,46.9128556 159.45556,90.624446 70.88224,70.232619 108.37431,171.564289 101.56843,270.931949 -8.22025,120.01813 -79.43847,229.16026 -185.17676,286.3467 -38.69967,20.92994 -81.61419,33.98582 -125.23612,39.16647 -38.66404,4.59188 -78.11775,1.98312 -116.06389,-6.72509 -38.730655,-8.88826 -76.284285,-24.45031 -109.713885,-45.98225 -51.67227,-33.28199 -93.45831,-79.46849 -122.657785,-133.4586 -58.4177,-108.0149 -51.7586,-246.30129 13.668235,-349.60278 46.07602,-72.748749 119.22351,-126.736926 202.122885,-149.780825 17.08567,-4.749366 34.90833,-8.554 52.56389,-10.320688 8.76841,-0.87738 17.73783,-0.341065 26.45833,-1.369986 M 132.65617,140.70535 H 95.261735 c -3.74394,0 -11.30928,-1.42945 -14.42688,0.90451 -3.37473,2.52646 -4.85573,12.34486 -5.26716,16.3816 -0.58261,5.71649 5.20099,4.58611 9.1107,4.58611 h 31.044445 c 2.21679,0 12.12368,-1.2432 12.01105,1.7707 -0.32165,8.60744 -3.79392,18.02034 -5.58672,26.45153 -3.82294,17.97836 -7.46548,35.99444 -11.28889,53.975 -11.485625,54.0141 -22.826765,108.1269 -33.658705,162.27778 -3.83547,19.17419 -7.58535,38.44575 -11.96588,57.50277 -1.04769,4.55795 -1.89934,9.16706 -2.7803,13.75834 -0.33572,1.74972 -0.70846,4.13493 1.13374,5.22853 2.35143,1.39587 7.47063,0.41591 10.15515,0.41591 h 25.04723 c 3.018495,0 8.790135,1.20333 10.353305,-2.12209 1.99686,-4.24811 2.26702,-10.20941 3.19323,-14.81124 2.01441,-10.00861 4.14032,-19.98982 6.21011,-29.98611 6.20692,-29.97694 12.54114,-59.94281 18.55513,-89.95834 1.98091,-9.8866 4.09032,-19.74496 6.06772,-29.63333 1.04664,-5.23396 1.52034,-11.33833 3.70852,-16.22778 4.78412,-10.69004 12.7588,-20.77082 20.67208,-29.28055 14.9465,-16.07305 32.32511,-28.49366 53.65379,-34.42249 20.05032,-5.57348 44.9547,-2.44094 54.57164,18.54749 5.18026,11.30564 5.00159,24.59694 3.53596,36.68888 -1.8268,15.07187 -5.48971,29.96816 -8.64439,44.80278 -3.79714,17.85567 -7.24348,35.79119 -11.16017,53.62223 -3.59142,16.35033 -7.84465,33.00573 -8.99092,49.74166 -0.79022,11.53728 1.23338,26.00074 9.20189,34.925 10.66662,11.94604 28.39637,13.33278 43.33043,11.54094 14.17614,-1.70088 27.55112,-7.01955 39.86389,-14.06344 3.86247,-2.20968 11.34496,-5.37409 11.28234,-10.53028 -0.0353,-2.90697 -1.60696,-10.36448 -4.93372,-11.12175 -3.64835,-0.83049 -10.18835,3.65813 -13.75695,4.76275 -13.16595,4.07534 -32.68677,3.23654 -35.52983,-13.74933 -2.64756,-15.81785 2.69079,-33.6032 6.09954,-49.03611 2.61762,-11.85113 5.17815,-23.7293 7.55806,-35.63056 1.57644,-7.88324 3.09603,-15.80071 4.89699,-23.63611 1.37283,-5.97267 2.44856,-12.01408 3.79917,-17.99166 7.80271,-34.53416 12.78238,-82.84357 -24.21838,-102.90221 -6.12697,-3.3215 -12.58179,-5.51818 -19.40278,-6.88218 -9.16503,-1.83275 -18.92175,-2.28926 -28.22222,-1.40052 -14.85198,1.41925 -28.84031,5.40105 -42.33333,11.81457 -14.82076,7.04462 -27.78076,17.58876 -39.86389,28.5219 -4.52408,4.09351 -8.13215,9.80643 -13.05278,13.34566 0.99514,-7.70599 3.25428,-15.31354 4.78046,-22.93056 3.18333,-15.88779 6.57514,-31.73363 9.75393,-47.625 1.20324,-6.01526 2.65875,-11.97997 3.88029,-17.99166 0.38648,-1.902 0.4177,-5.81696 1.89265,-7.19547 1.1714,-1.09481 3.96641,-0.56565 5.44545,-0.56565 h 14.81667 42.33333 12.34722 c 1.72531,0 4.00747,0.38133 5.63902,-0.26187 2.05608,-0.81054 2.37518,-3.15368 2.881,-5.02979 0.99366,-3.68544 6.12762,-15.13491 0.29943,-16.41016 -7.93785,-1.7368 -17.6603,0.18238 -25.75278,0.18238 -17.85649,0 -35.74941,-0.35278 -53.62222,-0.35278 0.34041,-7.90877 3.09285,-16.26606 4.78917,-23.98889 2.42025,-11.01862 4.28325,-22.166259 6.81057,-33.161109 1.2333,-5.36539 5.98613,-17.13974 2.01949,-21.83902 -4.51639,-5.35053 -14.50482,-1.60093 -20.32201,-1.09153 -19.88137,1.74089 -39.86792,5.01059 -59.61945,7.85667 -5.95766,0.85847 -19.654435,-0.0828 -21.604105,6.95999 -0.77874,2.8131 -2.62714,9.48327 -0.4679,11.91388 2.33823,2.63209 9.009585,1.2485 12.194235,1.55158 9.31334,0.88638 20.91396,0.60724 27.8365,8.05537 10.48693,11.283159 2.78445,30.631719 1.09127,43.743059 z"
       id="path46343" /></g></svg>
